<?xml version="1.0" encoding="utf-8"?>
<!-- Generator: Adobe Illustrator 24.0.2, SVG Export Plug-In . SVG Version: 6.00 Build 0)  -->
<svg version="1.1" id="Capa_1" xmlns="http://www.w3.org/2000/svg" xmlns:xlink="http://www.w3.org/1999/xlink" x="0px" y="0px"
	 viewBox="0 0 730 315" style="enable-background:new 0 0 730 315;" xml:space="preserve">
<style type="text/css">
	.st0{fill:#FFFFFF;}
</style>
<g>
	<polygon class="st0" points="94.5,203.2 57.7,289.8 20.5,203.2 0,203.2 0,313.1 17.2,313.1 17.2,235.2 50.8,313.1 64.2,313.1 
		97.6,235.3 97.6,313.1 114.8,313.1 114.8,203.2 	"/>
	<g>
		<path class="st0" d="M161,301.5c4,0,7.3-1,10.2-2.9c2.8-1.9,5.1-4.5,6.8-7.7c1.7-3.2,2.8-6.6,3.2-10.3c-2.3-0.6-5-1.3-8.1-1.9
			c-3.1-0.6-6.3-0.9-9.5-0.9c-5.5,0-9.7,1.2-12.5,3.5c-2.8,2.3-4.2,5.3-4.2,9.1c0,3.2,1.2,5.9,3.7,8
			C153.1,300.5,156.5,301.5,161,301.5 M157.6,315c-6,0-11.2-1.1-15.4-3.2c-4.2-2.1-7.4-5-9.5-8.6c-2.1-3.6-3.2-7.4-3.2-11.6
			c0-8.3,3-14.6,8.9-19.1c5.9-4.5,13.7-6.8,23.4-6.8c4.4,0,8.3,0.3,11.7,1c3.4,0.7,6.2,1.4,8.4,2.1v-3.6c0-6.1-1.6-10.6-4.9-13.5
			c-3.3-2.9-7.6-4.4-13-4.4c-4.1,0-7.7,0.8-10.8,2.5c-3.1,1.7-5.1,4.6-5.9,8.8h-16.6c0.6-5.7,2.5-10.3,5.7-14
			c3.2-3.7,7.2-6.5,11.9-8.4c4.8-1.9,10-2.8,15.6-2.8c11.2,0,19.9,2.8,26,8.5c6.1,5.7,9.1,13.4,9.1,23.4v20.4c0,4,0.2,6.9,0.7,8.6
			c0.5,1.8,1.2,2.9,2.3,3.4c1.1,0.5,2.6,0.7,4.5,0.7h0.8v14.8h-3.7c-5.2,0-9.6-0.8-13-2.4c-3.5-1.6-5.9-4.7-7.3-9.4
			c-2.5,3.9-5.9,7.1-10.2,9.7C168.9,313.7,163.7,315,157.6,315"/>
		<path class="st0" d="M254,315c-7.7,0-14.6-1.7-20.5-5.2c-6-3.5-10.7-8.2-14.1-14.4c-3.4-6.1-5.2-13.2-5.2-21.3
			c0-8.1,1.7-15.1,5.2-21.3c3.4-6.1,8.1-10.9,14.1-14.4c6-3.5,12.8-5.2,20.5-5.2c9.6,0,17.6,2.5,24.2,7.5c6.6,5,10.7,11.9,12.5,20.6
			h-17.8c-1-4.2-3.3-7.5-6.7-9.8c-3.4-2.4-7.6-3.5-12.3-3.5c-3.9,0-7.5,1-10.9,3.1c-3.4,2-6.1,5-8.1,8.8c-2,3.8-3,8.6-3,14.2
			c0,5.5,1,10.3,3,14.2c2,3.9,4.7,6.9,8.1,8.9c3.4,2,7,3,10.9,3c4.8,0,8.9-1.2,12.3-3.5c3.4-2.3,5.7-5.6,6.7-9.9h17.8
			c-1.7,8.4-5.8,15.1-12.4,20.3C271.6,312.4,263.5,315,254,315"/>
		<path class="st0" d="M303.5,313.1v-77.9h17.2v12.1c1.9-4,4.4-7.1,7.5-9.3c3.1-2.2,6.8-3.4,10.9-3.4h10.8v15.5h-12.5
			c-3.5,0-6.6,1-9.1,2.9c-2.5,1.9-4.4,4.9-5.7,9c-1.3,4.1-2,9.3-2,15.5v35.5H303.5z"/>
		<path class="st0" d="M392.2,300.1c4.3,0,8.1-1,11.6-2.9c3.5-1.9,6.3-4.8,8.4-8.6c2.1-3.8,3.1-8.6,3.1-14.4c0-5.8-1-10.5-3.1-14.4
			c-2.1-3.8-4.9-6.7-8.4-8.6c-3.5-1.9-7.3-2.9-11.3-2.9c-4.2,0-8,1-11.6,2.9c-3.5,1.9-6.4,4.8-8.4,8.6c-2.1,3.8-3.1,8.6-3.1,14.4
			c0,5.8,1,10.5,3.1,14.4c2.1,3.8,4.9,6.7,8.4,8.6C384.3,299.1,388.1,300.1,392.2,300.1 M392.3,315c-7.7,0-14.6-1.7-20.8-5.1
			c-6.1-3.4-11-8.2-14.6-14.4c-3.6-6.2-5.4-13.3-5.4-21.3c0-8.2,1.8-15.3,5.4-21.4c3.6-6.1,8.5-10.9,14.7-14.3
			c6.2-3.4,13.1-5.1,20.7-5.1c7.8,0,14.8,1.7,20.9,5.1c6.1,3.4,10.9,8.2,14.5,14.3c3.6,6.1,5.4,13.3,5.4,21.4
			c0,8.1-1.8,15.2-5.4,21.3c-3.6,6.2-8.5,11-14.6,14.4C407,313.3,400,315,392.3,315"/>
	</g>
	<polygon class="st0" points="494.6,313.1 494.6,203.2 511.8,203.2 511.8,299.5 561.3,299.5 561.3,313.1 	"/>
	<path class="st0" d="M574.6,235.3h17.2v77.9h-17.2V235.3z M574.1,202.8h18.3v18.7h-18.3V202.8z"/>
	<g>
		<path class="st0" d="M613.2,313.1v-89.6c0-6.5,0.8-11.4,2.3-14.8c1.6-3.4,4.1-5.7,7.7-6.8c3.5-1.2,8.2-1.7,14.1-1.7h8.9v14.8h-5.8
			c-4.1,0-6.7,0.6-8,1.8c-1.3,1.2-2,3.8-2,7.9v88.5H613.2z M602.1,235.3h44v14.6h-44V235.3z"/>
		<path class="st0" d="M692,315c-7.7,0-14.5-1.7-20.4-5.1c-5.9-3.4-10.5-8.1-13.9-14.2c-3.4-6.1-5.1-13.1-5.1-21.2
			c0-8.1,1.7-15.2,5-21.4c3.3-6.2,8-11.1,13.9-14.5c5.9-3.5,12.8-5.2,20.6-5.2c7.6,0,14.2,1.7,19.9,5c5.7,3.4,10.1,7.8,13.2,13.5
			c3.1,5.7,4.7,12,4.7,19v3.4c0,1.2-0.1,2.5-0.3,4h-64.3v-11.6h47.5c-0.3-5.9-2.4-10.5-6.3-14c-3.9-3.5-8.7-5.2-14.3-5.2
			c-4.1,0-7.8,0.9-11.2,2.7c-3.4,1.8-6.2,4.5-8.3,8c-2.1,3.5-3.1,8-3.1,13.4v4.4c0,5.2,1,9.7,3.1,13.4c2.1,3.7,4.8,6.5,8.2,8.4
			c3.4,1.9,7.1,2.8,11.2,2.8c4.6,0,8.4-1,11.6-3.1c3.1-2.1,5.4-4.9,6.9-8.5h17.3c-1.4,4.9-3.7,9.3-7,13.3c-3.3,3.9-7.3,7-12.2,9.3
			C703.8,313.9,698.3,315,692,315"/>
		<path class="st0" d="M432.6,120.2l-0.3,0.2l-46.7,46.9c-5.8,5.8-13.5,9.1-21.8,9.1c-8.2,0-15.9-3.2-21.8-9.1l-46.7-46.9l-0.2-0.2
			l-0.3-0.2c-15.8-11.6-25.2-30.2-25.2-49.8c0-34,27.5-61.7,61.4-61.7c8.4,0,16.8,1.7,24.4,5.1c-7.7,5.6-14.2,12.8-19,21.1
			c-6.3,10.7-9.7,23.1-9.7,35.6c0,12.5,3.3,24.8,9.6,35.6c6.1,10.4,14.8,19.1,25.2,25.2l2.1,1.2l2.1-1.2c10.4-6,19.2-14.8,25.3-25.2
			c6.3-10.7,9.7-23.1,9.7-35.6c0-12.5-3.3-24.8-9.6-35.6c-4.8-8.2-11.3-15.4-19-21c7.6-3.3,15.9-5,24.3-5
			c33.9,0,61.4,27.7,61.4,61.7C458,89.9,448.5,108.6,432.6,120.2 M368.1,59.5V20.9c7.4,5.6,13.4,12.8,17.6,21L368.1,59.5z
			 M368.1,102.1L392,78c-2.1,16.4-10.8,31.4-23.9,41.4V102.1z M359.7,102.1v17.4c-13.2-10-21.8-25-23.9-41.5L359.7,102.1z
			 M359.7,59.5l-17.5-17.6c4.2-8.1,10.2-15.3,17.5-20.9V59.5z M368.1,71.4l21.1-21.2c1.7,5,2.8,10.2,3.2,15.5l-24.3,24.4V71.4z
			 M359.7,90.1l-24.3-24.4c0.4-5.3,1.5-10.5,3.2-15.5l21.1,21.2V90.1z M446,20.6C432.8,7.4,415.3,0.1,396.6,0.1
			c-11.4,0-22.6,2.8-32.7,8.1l0,0l0,0c-10-5.4-21.3-8.2-32.8-8.2c-18.6,0-36.2,7.3-49.3,20.5c-13.2,13.2-20.4,30.9-20.4,49.6
			c0,11.2,2.7,22.4,7.8,32.3c4.9,9.5,12,17.8,20.6,24.2l46.5,46.7c7.4,7.4,17.2,11.5,27.7,11.5s20.3-4.1,27.7-11.5l46.2-46.5
			c8.6-6.3,15.8-14.7,20.7-24.2c5.2-9.9,7.9-21.1,7.9-32.4C466.4,51.5,459.1,33.8,446,20.6"/>
	</g>
</g>
</svg>
