<?xml version="1.0" encoding="UTF-8"?>
<!-- Generator: Adobe Illustrator 24.0.2, SVG Export Plug-In . SVG Version: 6.00 Build 0)  -->
<svg version="1.1" id="Capa_1" xmlns="http://www.w3.org/2000/svg" xmlns:xlink="http://www.w3.org/1999/xlink" x="0px" y="0px" viewBox="0 0 256 100" style="enable-background:new 0 0 256 100;" xml:space="preserve">
<style type="text/css">
	.st0{fill:none;}
	.st1{fill:#00263E;}
	.st2{fill:#80C200;}
	.st3{fill-rule:evenodd;clip-rule:evenodd;fill:#FFFFFF;}
	.st4{fill:#FFFFFF;}
</style>
<g>
	<rect class="st0" width="256" height="100"/>
	<g>
		<g>
			<path class="st1" d="M211.8,30.7c-1.3-0.9-3.8-1.4-7.6-1.4h-11.1v12.6h10.4c3.8,0,6.5-0.5,8-1.5c1.5-1,2.3-2.6,2.3-4.9     C213.8,33.2,213.1,31.6,211.8,30.7z"/>
			<path class="st1" d="M226.7,6.1l-134,0c-8,0-12.1,4.1-12.1,12.1v60.1l146.2,0c8,0,12.1-4.1,12.1-12.1v-48     C238.8,10.2,234.7,6.1,226.7,6.1z M132.7,29.1h-27.2v8.7h24.9V47h-24.9v18.2H94.2V20h38.5V29.1z M176.9,29.1h-28.8v7.6h25.6V46     h-25.6v9.7h28.8v9.5h-40.1V20h40.1V29.1z M220.8,46.7c-2.9,2.7-7,4-12.3,4h-15.4v14.4h-11.3V20h26.7c5.3,0,9.3,1.4,12.3,4.1     c2.9,2.7,4.4,6.5,4.4,11.3C225.2,40.2,223.8,44,220.8,46.7z"/>
		</g>
		<g>
			<path class="st1" d="M0.5,93.8v-6.9h5.8v1.4H2.2v1.3h3.8V91H2.2v2.8H0.5z"/>
			<path class="st1" d="M6,93.8l3.2-6.9h1.6l3.1,6.9h-1.9l-0.6-1.5h-3l-0.6,1.5H6z M9.1,90.9h1.8L10,88.8L9.1,90.9z"/>
			<path class="st1" d="M22.3,91.1c-0.1,0.9-0.5,1.6-1.2,2.1c-0.7,0.5-1.6,0.8-2.7,0.8c-1.2,0-2.2-0.3-3-1c-0.7-0.7-1.1-1.5-1.1-2.6     c0-1.1,0.4-2,1.1-2.6c0.7-0.7,1.7-1,3-1c1.1,0,2,0.2,2.7,0.7c0.7,0.5,1.1,1.1,1.2,1.9h-1.9c-0.1-0.4-0.3-0.7-0.7-1     c-0.3-0.2-0.8-0.3-1.4-0.3c-0.7,0-1.2,0.2-1.6,0.6c-0.4,0.4-0.6,0.9-0.6,1.6c0,0.7,0.2,1.2,0.6,1.6c0.4,0.4,0.9,0.6,1.6,0.6     c0.6,0,1.1-0.1,1.4-0.4c0.4-0.2,0.6-0.6,0.6-1H22.3z"/>
			<path class="st1" d="M27,88.3v5.5h-1.7v-5.5H23v-1.4h6.4v1.4H27z"/>
			<path class="st1" d="M32.1,86.9v3.7c0,0.7,0.1,1.2,0.4,1.5c0.3,0.3,0.7,0.5,1.4,0.5c0.3,0,0.6,0,0.9-0.1c0.2-0.1,0.4-0.2,0.6-0.4     c0.1-0.1,0.2-0.3,0.3-0.5c0.1-0.2,0.1-0.5,0.1-0.9v-3.7h1.7v3.9c0,1-0.3,1.8-0.9,2.4c-0.6,0.5-1.5,0.8-2.6,0.8     c-1.1,0-2-0.3-2.6-0.8c-0.6-0.5-0.9-1.3-0.9-2.4v-3.9H32.1z"/>
			<path class="st1" d="M39.3,93.8v-6.9h4.2c0.9,0,1.6,0.2,2,0.5c0.4,0.3,0.6,0.8,0.6,1.4c0,0.4-0.1,0.8-0.3,1.1     c-0.2,0.3-0.5,0.5-0.8,0.7c0.3,0.1,0.5,0.3,0.6,0.5c0.1,0.2,0.2,0.5,0.2,1c0,0,0,0.1,0,0.2c0,0.9,0.2,1.4,0.4,1.6h-1.9     c0-0.1-0.1-0.2-0.1-0.2c0-0.1,0-0.2,0-0.3v-0.5c0-0.6-0.1-1-0.2-1.2c-0.2-0.2-0.5-0.3-0.9-0.3h0H41v2.5H39.3z M41,89.8H43     c0.5,0,0.9-0.1,1.1-0.2c0.2-0.1,0.3-0.3,0.3-0.6c0-0.3-0.1-0.5-0.3-0.6c-0.2-0.1-0.6-0.2-1.2-0.2H41V89.8z"/>
			<path class="st1" d="M46.7,93.8l3.2-6.9h1.6l3.1,6.9h-1.9l-0.6-1.5h-3l-0.6,1.5H46.7z M49.7,90.9h1.8l-0.9-2.1L49.7,90.9z"/>
			<path class="st1" d="M59.3,93.8v-6.9h6v1.4H61v1.2h3.9v1.4H61v1.5h4.3v1.4H59.3z"/>
			<path class="st1" d="M66.8,93.8v-6.9h1.7v5.4H72v1.4H66.8z"/>
			<path class="st1" d="M73.4,93.8v-6.9h6v1.4h-4.3v1.2H79v1.4h-3.9v1.5h4.3v1.4H73.4z"/>
			<path class="st1" d="M88.6,91.1c-0.1,0.9-0.5,1.6-1.2,2.1c-0.7,0.5-1.6,0.8-2.7,0.8c-1.2,0-2.2-0.3-3-1c-0.7-0.7-1.1-1.5-1.1-2.6     c0-1.1,0.4-2,1.1-2.6c0.7-0.7,1.7-1,3-1c1.1,0,2,0.2,2.7,0.7c0.7,0.5,1.1,1.1,1.2,1.9h-1.9c-0.1-0.4-0.3-0.7-0.7-1     c-0.3-0.2-0.8-0.3-1.4-0.3c-0.7,0-1.2,0.2-1.6,0.6c-0.4,0.4-0.6,0.9-0.6,1.6c0,0.7,0.2,1.2,0.6,1.6c0.4,0.4,0.9,0.6,1.6,0.6     c0.6,0,1.1-0.1,1.4-0.4c0.4-0.2,0.6-0.6,0.6-1H88.6z"/>
			<path class="st1" d="M93.3,88.3v5.5h-1.7v-5.5h-2.3v-1.4h6.4v1.4H93.3z"/>
			<path class="st1" d="M96.7,93.8v-6.9h4.2c0.9,0,1.6,0.2,2,0.5c0.4,0.3,0.6,0.8,0.6,1.4c0,0.4-0.1,0.8-0.3,1.1     c-0.2,0.3-0.5,0.5-0.8,0.7c0.3,0.1,0.5,0.3,0.6,0.5c0.1,0.2,0.2,0.5,0.2,1c0,0,0,0.1,0,0.2c0,0.9,0.2,1.4,0.4,1.6h-1.9     c0-0.1-0.1-0.2-0.1-0.2c0-0.1,0-0.2,0-0.3v-0.5c0-0.6-0.1-1-0.2-1.2c-0.2-0.2-0.5-0.3-0.9-0.3h0h-1.9v2.5H96.7z M98.5,89.8h1.9     c0.5,0,0.9-0.1,1.1-0.2c0.2-0.1,0.3-0.3,0.3-0.6c0-0.3-0.1-0.5-0.3-0.6c-0.2-0.1-0.6-0.2-1.2-0.2h-1.9V89.8z"/>
			<path class="st1" d="M104.8,90.3c0-1.1,0.4-2,1.1-2.6c0.7-0.7,1.7-1,3-1c1.2,0,2.2,0.3,3,1c0.7,0.7,1.1,1.5,1.1,2.6     c0,1.1-0.4,2-1.1,2.6c-0.7,0.7-1.7,1-3,1c-1.2,0-2.2-0.3-3-1C105.2,92.3,104.8,91.4,104.8,90.3z M108.9,92.5     c0.7,0,1.2-0.2,1.6-0.6c0.4-0.4,0.6-0.9,0.6-1.6c0-0.7-0.2-1.2-0.6-1.6c-0.4-0.4-0.9-0.6-1.6-0.6c-0.7,0-1.2,0.2-1.6,0.6     c-0.4,0.4-0.6,0.9-0.6,1.6c0,0.7,0.2,1.2,0.6,1.6C107.7,92.3,108.2,92.5,108.9,92.5z M108,86.2l0.7-1.5h2l-1.5,1.5H108z"/>
			<path class="st1" d="M114.5,93.8v-6.9h2.1l3.4,4.8v-4.8h1.6v6.9h-2.1l-3.4-4.9v4.9H114.5z"/>
			<path class="st1" d="M123.6,93.8v-6.9h1.7v6.9H123.6z"/>
			<path class="st1" d="M134.9,91.1c-0.1,0.9-0.5,1.6-1.2,2.1c-0.7,0.5-1.6,0.8-2.7,0.8c-1.2,0-2.2-0.3-3-1     c-0.7-0.7-1.1-1.5-1.1-2.6c0-1.1,0.4-2,1.1-2.6c0.7-0.7,1.7-1,3-1c1.1,0,2,0.2,2.7,0.7c0.7,0.5,1.1,1.1,1.2,1.9H133     c-0.1-0.4-0.3-0.7-0.7-1c-0.3-0.2-0.8-0.3-1.4-0.3c-0.7,0-1.2,0.2-1.6,0.6c-0.4,0.4-0.6,0.9-0.6,1.6c0,0.7,0.2,1.2,0.6,1.6     c0.4,0.4,0.9,0.6,1.6,0.6c0.6,0,1.1-0.1,1.4-0.4c0.4-0.2,0.6-0.6,0.6-1H134.9z"/>
			<path class="st1" d="M135.3,93.8l3.2-6.9h1.6l3.1,6.9h-1.9l-0.6-1.5h-3l-0.6,1.5H135.3z M138.3,90.9h1.8l-0.9-2.1L138.3,90.9z"/>
			<path class="st1" d="M147.9,93.8v-6.9h4c0.8,0,1.4,0.2,1.9,0.6c0.4,0.4,0.7,1,0.7,1.7c0,0.7-0.2,1.3-0.7,1.7     c-0.4,0.4-1.1,0.6-1.9,0.6h-2.3v2.2H147.9z M149.6,90.2h1.6c0.6,0,1-0.1,1.2-0.2c0.2-0.1,0.3-0.4,0.3-0.7c0-0.4-0.1-0.6-0.3-0.7     c-0.2-0.1-0.6-0.2-1.1-0.2h-1.7V90.2z"/>
			<path class="st1" d="M155.5,90.3c0-1.1,0.4-2,1.1-2.6c0.7-0.7,1.7-1,3-1c1.2,0,2.2,0.3,3,1c0.7,0.7,1.1,1.5,1.1,2.6     c0,1.1-0.4,2-1.1,2.6c-0.7,0.7-1.7,1-3,1c-1.2,0-2.2-0.3-3-1C155.8,92.3,155.5,91.4,155.5,90.3z M159.5,92.5     c0.7,0,1.2-0.2,1.6-0.6c0.4-0.4,0.6-0.9,0.6-1.6c0-0.7-0.2-1.2-0.6-1.6c-0.4-0.4-0.9-0.6-1.6-0.6c-0.7,0-1.2,0.2-1.6,0.6     c-0.4,0.4-0.6,0.9-0.6,1.6c0,0.7,0.2,1.2,0.6,1.6C158.3,92.3,158.9,92.5,159.5,92.5z"/>
			<path class="st1" d="M164.9,91.4h1.7v0.1c0,0.4,0.2,0.7,0.5,0.9c0.3,0.2,0.8,0.3,1.5,0.3c0.5,0,0.9-0.1,1.2-0.2     c0.3-0.2,0.4-0.4,0.4-0.6c0-0.2-0.1-0.4-0.3-0.5c-0.2-0.1-0.5-0.2-1.1-0.2l-1.2-0.1c-0.9-0.1-1.5-0.3-2-0.6     c-0.4-0.3-0.6-0.8-0.6-1.3c0-0.7,0.3-1.2,0.9-1.6c0.6-0.4,1.4-0.6,2.4-0.6c1.1,0,1.9,0.2,2.5,0.6c0.6,0.4,0.9,0.9,0.9,1.6V89H170     c0-0.3-0.2-0.6-0.5-0.8c-0.3-0.2-0.7-0.3-1.2-0.3c-0.5,0-0.9,0.1-1.1,0.2c-0.3,0.1-0.4,0.3-0.4,0.6c0,0.2,0.1,0.3,0.2,0.4     c0.2,0.1,0.5,0.2,1.1,0.2l1.3,0.1c0.9,0.1,1.5,0.3,1.9,0.6c0.4,0.3,0.6,0.8,0.6,1.4c0,0.8-0.3,1.3-0.9,1.7     c-0.6,0.4-1.5,0.6-2.7,0.6c-1.1,0-2-0.2-2.6-0.6c-0.6-0.4-0.9-1-0.9-1.8V91.4z"/>
			<path class="st1" d="M173.7,93.8v-6.9h1.7v6.9H173.7z"/>
			<path class="st1" d="M177.3,93.8v-6.9h4.4c0.8,0,1.3,0.1,1.7,0.4c0.4,0.3,0.6,0.7,0.6,1.3c0,0.3-0.1,0.6-0.2,0.9     c-0.2,0.3-0.4,0.5-0.7,0.6c0.4,0.1,0.7,0.3,0.9,0.6c0.2,0.3,0.3,0.6,0.3,1.1c0,0.6-0.2,1.1-0.6,1.4c-0.4,0.3-0.9,0.5-1.6,0.5     H177.3z M181,88.2h-2v1.4h2c0.5,0,0.8-0.1,0.9-0.2c0.2-0.1,0.3-0.3,0.3-0.5c0-0.3-0.1-0.4-0.3-0.5     C181.7,88.3,181.4,88.2,181,88.2z M179,92.4h2.3c0.5,0,0.8-0.1,0.9-0.2c0.2-0.1,0.2-0.3,0.2-0.6c0-0.3-0.1-0.5-0.3-0.6     c-0.2-0.1-0.5-0.2-0.9-0.2H179V92.4z"/>
			<path class="st1" d="M185.8,93.8v-6.9h1.7v6.9H185.8z"/>
			<path class="st1" d="M189.4,93.8v-6.9h1.7v5.4h3.5v1.4H189.4z"/>
			<path class="st1" d="M196,93.8v-6.9h1.7v6.9H196z"/>
			<path class="st1" d="M202.7,86.9c0.7,0,1.3,0,1.7,0.1c0.4,0.1,0.7,0.2,1,0.3c0.5,0.3,0.9,0.7,1.2,1.2c0.3,0.5,0.4,1.1,0.4,1.8     c0,0.7-0.1,1.3-0.4,1.8c-0.3,0.5-0.7,0.9-1.2,1.2c-0.3,0.2-0.6,0.3-1,0.3c-0.4,0.1-0.9,0.1-1.7,0.1h-3.1v-6.9H202.7z M201.5,88.3     v4.1h1.3c0.8,0,1.4-0.2,1.8-0.5c0.4-0.3,0.6-0.9,0.6-1.5c0-0.7-0.2-1.2-0.6-1.5c-0.4-0.3-1-0.5-1.8-0.5H201.5z"/>
			<path class="st1" d="M207.2,93.8l3.2-6.9h1.6l3.1,6.9h-1.9l-0.6-1.5h-3l-0.6,1.5H207.2z M210.3,90.9h1.8l-0.9-2.1L210.3,90.9z"/>
			<path class="st1" d="M219.1,86.9c0.7,0,1.3,0,1.7,0.1c0.4,0.1,0.7,0.2,1,0.3c0.5,0.3,0.9,0.7,1.2,1.2c0.3,0.5,0.4,1.1,0.4,1.8     c0,0.7-0.1,1.3-0.4,1.8c-0.3,0.5-0.7,0.9-1.2,1.2c-0.3,0.2-0.6,0.3-1,0.3c-0.4,0.1-0.9,0.1-1.7,0.1H216v-6.9H219.1z M217.8,88.3     v4.1h1.3c0.8,0,1.4-0.2,1.8-0.5c0.4-0.3,0.6-0.9,0.6-1.5c0-0.7-0.2-1.2-0.6-1.5c-0.4-0.3-1-0.5-1.8-0.5H217.8z"/>
			<path class="st1" d="M224.8,93.8v-6.9h6v1.4h-4.3v1.2h3.9v1.4h-3.9v1.5h4.3v1.4H224.8z"/>
			<path class="st1" d="M232.1,91.4h1.7v0.1c0,0.4,0.2,0.7,0.5,0.9c0.3,0.2,0.8,0.3,1.5,0.3c0.5,0,0.9-0.1,1.2-0.2     c0.3-0.2,0.4-0.4,0.4-0.6c0-0.2-0.1-0.4-0.3-0.5c-0.2-0.1-0.5-0.2-1.1-0.2l-1.2-0.1c-0.9-0.1-1.5-0.3-1.9-0.6     c-0.4-0.3-0.6-0.8-0.6-1.3c0-0.7,0.3-1.2,0.9-1.6c0.6-0.4,1.4-0.6,2.4-0.6c1.1,0,1.9,0.2,2.5,0.6c0.6,0.4,0.9,0.9,0.9,1.6V89     h-1.7c0-0.3-0.2-0.6-0.5-0.8c-0.3-0.2-0.7-0.3-1.2-0.3c-0.5,0-0.9,0.1-1.1,0.2c-0.3,0.1-0.4,0.3-0.4,0.6c0,0.2,0.1,0.3,0.2,0.4     c0.2,0.1,0.5,0.2,1.1,0.2l1.3,0.1c0.9,0.1,1.5,0.3,1.9,0.6c0.4,0.3,0.6,0.8,0.6,1.4c0,0.8-0.3,1.3-0.9,1.7     c-0.6,0.4-1.5,0.6-2.7,0.6c-1.1,0-2-0.2-2.6-0.6c-0.6-0.4-0.9-1-0.9-1.8V91.4z"/>
		</g>
		<g>
			<path class="st2" d="M12.1,6.5C4.1,6.5,0,10.6,0,18.6v48c0,8,4.1,12.1,12.1,12.1h48c8,0,12.1-4.1,12.1-12.1V6.5H12.1z"/>
			<g>
				<g>
					<path class="st3" d="M45.5,20H19.8c-2.2,0-3.9,1.7-3.9,3.8v37.5c0,2.1,1.7,3.8,3.9,3.8h32.5c2.2,0,3.9-1.7,3.9-3.8V30.5       L45.5,20z M53.3,60.2c0,1.1-0.9,2-2.1,2H20.9c-1.1,0-2-0.9-2-2V24.9c0-1.1,0.9-2,2-2h23.5v8.5l8.9,0V60.2z"/>
					<g>
						<rect x="21.8" y="36.1" class="st3" width="28.6" height="4.3"/>
						<rect x="21.8" y="53.2" class="st3" width="28.6" height="4.3"/>
						<rect x="21.8" y="44.7" class="st3" width="28.6" height="4.3"/>
						<rect x="21.8" y="27.6" class="st3" width="4.3" height="4.3"/>
					</g>
				</g>
			</g>
		</g>
		<g>
			<path class="st1" d="M249.9,6.1c1,0,2.1,0.3,3,0.8c1,0.5,1.7,1.3,2.3,2.3c0.6,1,0.8,2,0.8,3.1c0,1.1-0.3,2.1-0.8,3     s-1.3,1.7-2.3,2.3c-1,0.5-2,0.8-3,0.8s-2.1-0.3-3-0.8c-1-0.5-1.7-1.3-2.3-2.3c-0.5-1-0.8-2-0.8-3c0-1.1,0.3-2.1,0.8-3.1     s1.3-1.7,2.3-2.3C247.8,6.3,248.8,6.1,249.9,6.1z M249.9,7.3c-0.8,0-1.6,0.2-2.4,0.6c-0.8,0.4-1.4,1-1.8,1.8     c-0.4,0.8-0.7,1.6-0.7,2.5c0,0.9,0.2,1.7,0.7,2.5c0.4,0.8,1,1.4,1.8,1.8c0.8,0.4,1.6,0.7,2.4,0.7c0.9,0,1.7-0.2,2.4-0.7     c0.8-0.4,1.4-1,1.8-1.8s0.7-1.6,0.7-2.5c0-0.9-0.2-1.7-0.7-2.5c-0.4-0.8-1.1-1.4-1.8-1.8C251.5,7.5,250.7,7.3,249.9,7.3z      M247.1,15.4V9h1.3c1.2,0,1.9,0,2.1,0c0.4,0,0.8,0.1,1,0.3c0.2,0.1,0.4,0.3,0.6,0.6c0.2,0.3,0.2,0.6,0.2,0.9     c0,0.5-0.2,0.9-0.5,1.2c-0.3,0.3-0.7,0.5-1.3,0.6c0.2,0.1,0.3,0.2,0.5,0.2s0.3,0.3,0.4,0.5c0,0.1,0.2,0.3,0.5,0.8l0.8,1.3h-1.6     l-0.5-1.1c-0.4-0.7-0.7-1.2-0.9-1.3c-0.2-0.2-0.5-0.3-0.9-0.3h-0.3v2.7H247.1z M248.4,11.8h0.5c0.8,0,1.2,0,1.4-0.1     c0.2-0.1,0.3-0.2,0.4-0.3s0.2-0.3,0.2-0.5c0-0.2-0.1-0.3-0.2-0.5c-0.1-0.1-0.3-0.2-0.4-0.3S249.7,10,249,10h-0.5V11.8z"/>
		</g>
	</g>
</g>
</svg>